<svg width="298" height="235" viewBox="0 0 298 235" fill="none" xmlns="http://www.w3.org/2000/svg">
<g clip-path="url(#clip0_1014_498)">
<path opacity="0.65" d="M214.953 69.7586C217.281 67.4138 221.056 67.4138 223.384 69.7586C225.712 72.1033 225.712 75.9049 223.384 78.2497L69.1764 233.567C66.8484 235.912 63.074 235.912 60.746 233.567C58.418 231.222 58.418 227.421 60.746 225.076L214.953 69.7586Z" fill="url(#paint0_linear_1014_498)"/>
<path d="M389.121 -260.786C397.387 -269.071 410.789 -269.071 419.054 -260.786C427.32 -252.502 427.32 -239.069 419.054 -230.784L61.1322 127.964C52.8665 136.249 39.4651 136.249 31.1993 127.964C22.9336 119.679 22.9336 106.247 31.1993 97.9621L389.121 -260.786Z" fill="url(#paint1_linear_1014_498)"/>
</g>
<defs>
<linearGradient id="paint0_linear_1014_498" x1="223.384" y1="69.7586" x2="59.5794" y2="232.392" gradientUnits="userSpaceOnUse">
<stop offset="0.161458" stop-color="white" stop-opacity="0"/>
<stop offset="1" stop-color="#D9E1FC"/>
</linearGradient>
<linearGradient id="paint1_linear_1014_498" x1="419.054" y1="-260.786" x2="30.3049" y2="127.068" gradientUnits="userSpaceOnUse">
<stop offset="0.291667" stop-color="#F23076" stop-opacity="0"/>
<stop offset="1" stop-color="#F23076"/>
</linearGradient>
<clipPath id="clip0_1014_498">
<rect width="299" height="235" fill="white" transform="translate(-1)"/>
</clipPath>
</defs>
</svg>
