<svg width="16" height="16" viewBox="0 0 16 16" fill="none" xmlns="http://www.w3.org/2000/svg">
<g clip-path="url(#clip0_1014_401)">
<path d="M8.00003 0C7.67361 0 7.36056 0.12967 7.12975 0.360484C6.89894 0.591298 6.76927 0.904349 6.76927 1.23077V7.38462C6.76927 7.71104 6.89894 8.02409 7.12975 8.2549C7.36056 8.48571 7.67361 8.61539 8.00003 8.61539C8.32646 8.61539 8.63951 8.48571 8.87032 8.2549C9.10113 8.02409 9.2308 7.71104 9.2308 7.38462V1.23077C9.2308 0.904349 9.10113 0.591298 8.87032 0.360484C8.63951 0.12967 8.32646 0 8.00003 0V0ZM3.59634 1.59631C3.4188 1.61873 3.25161 1.69228 3.11511 1.808C2.17918 2.54584 1.42293 3.4865 0.903376 4.55909C0.383819 5.63168 0.114503 6.8082 0.115727 8C0.115727 12.3434 3.65542 15.8849 8.00003 15.8849C12.3447 15.8849 15.885 12.3434 15.885 8C15.885 5.49354 14.7145 3.25108 12.885 1.80738C12.7902 1.73162 12.6815 1.67526 12.565 1.64151C12.4485 1.60776 12.3265 1.59728 12.206 1.61068C12.0854 1.62408 11.9687 1.66109 11.8625 1.7196C11.7562 1.77812 11.6626 1.85698 11.5868 1.95169C11.511 2.04641 11.4547 2.15511 11.4209 2.27161C11.3872 2.38811 11.3767 2.51011 11.3901 2.63066C11.4035 2.7512 11.4405 2.86793 11.499 2.97417C11.5575 3.08041 11.6364 3.17408 11.7311 3.24985C12.4508 3.81482 13.0325 4.53606 13.4323 5.35902C13.8321 6.18197 14.0395 7.08507 14.0388 8C14.0408 8.79357 13.8859 9.5797 13.5831 10.3132C13.2803 11.0468 12.8356 11.7133 12.2744 12.2744C11.7133 12.8355 11.0468 13.2803 10.3133 13.5831C9.57974 13.8858 8.7936 14.0407 8.00003 14.0388C7.20647 14.0407 6.42033 13.8858 5.6868 13.5831C4.95326 13.2803 4.28678 12.8355 3.72564 12.2744C3.1645 11.7133 2.71976 11.0468 2.41697 10.3132C2.11418 9.5797 1.95932 8.79357 1.96127 8C1.96075 7.0851 2.16823 6.18206 2.56802 5.35914C2.9678 4.53621 3.54944 3.81494 4.26896 3.24985C4.43193 3.12744 4.5498 2.95453 4.60419 2.7581C4.65858 2.56168 4.64643 2.35277 4.56963 2.16397C4.49283 1.97517 4.35571 1.8171 4.17964 1.71441C4.00358 1.61173 3.79848 1.5702 3.59634 1.59631Z" fill="#0F0F0F"/>
</g>
<defs>
<clipPath id="clip0_1014_401">
<rect width="16" height="16" fill="white"/>
</clipPath>
</defs>
</svg>
