<svg width="165" height="40" viewBox="0 0 165 40" fill="none" xmlns="http://www.w3.org/2000/svg">
<g clip-path="url(#clip0_1013_368)">
<path d="M55.2327 29L60.482 10.984H66.5909L71.9937 29H68.0337L66.7444 24.2H60.482L59.2234 29H55.2327ZM63.6132 12.584L61.2802 21.224H65.9462L63.6132 12.584Z" fill="white"/>
<path d="M90.1698 19.976C90.1698 22.344 89.7196 24.1893 88.8191 25.512C87.9186 26.8133 86.6396 27.72 84.9819 28.232C83.3447 28.744 81.421 29 79.2107 29H74.3605V10.984H79.2107C81.421 10.984 83.3447 11.3253 84.9819 12.008C86.6396 12.6693 87.9186 13.6613 88.8191 14.984C89.7196 16.3067 90.1698 17.9707 90.1698 19.976ZM78.0135 25.832H80.3158C81.5233 25.832 82.567 25.6827 83.447 25.384C84.3475 25.064 85.0331 24.488 85.5037 23.656C85.9949 22.8027 86.2405 21.5653 86.2405 19.944C86.2405 18.0667 85.7084 16.6587 84.6442 15.72C83.58 14.7813 82.1372 14.312 80.3158 14.312H78.0135V25.832Z" fill="white"/>
<path d="M91.926 29L97.1753 10.984H103.284L108.687 29H104.727L103.438 24.2H97.1753L95.9167 29H91.926ZM100.307 12.584L97.9735 21.224H102.64L100.307 12.584Z" fill="white"/>
<path d="M111.207 29V10.984H113.172V27.208H122.75V29H111.207Z" fill="white"/>
<path d="M130.356 29.32C128.985 29.32 127.849 29 126.948 28.36C126.068 27.6987 125.413 26.856 124.984 25.832C124.574 24.7867 124.37 23.7093 124.37 22.6C124.37 21.384 124.595 20.2747 125.045 19.272C125.516 18.248 126.191 17.4373 127.071 16.84C127.972 16.2427 129.046 15.944 130.294 15.944C131.891 15.944 133.221 16.488 134.285 17.576C135.349 18.6427 135.922 20.0827 136.004 21.896C136.025 21.9813 136.035 22.1093 136.035 22.28C136.035 22.4293 136.035 22.568 136.035 22.696H126.273C126.273 24.2107 126.621 25.4053 127.317 26.28C128.033 27.1333 129.036 27.56 130.325 27.56C131.287 27.56 132.105 27.304 132.781 26.792C133.477 26.28 133.906 25.5867 134.07 24.712H136.004C135.799 26.0347 135.196 27.1333 134.193 28.008C133.19 28.8827 131.911 29.32 130.356 29.32ZM126.334 21.576H134.009C134.009 21.128 133.886 20.5947 133.64 19.976C133.415 19.3573 133.026 18.824 132.474 18.376C131.942 17.9067 131.205 17.672 130.264 17.672C129.404 17.672 128.698 17.864 128.145 18.248C127.593 18.632 127.173 19.1227 126.887 19.72C126.6 20.3173 126.416 20.936 126.334 21.576Z" fill="white"/>
<path d="M138.527 29V15.976H140.215L140.553 19.208H140.614C140.634 19.1013 140.727 18.8773 140.89 18.536C141.054 18.1947 141.3 17.832 141.627 17.448C141.975 17.0427 142.425 16.7013 142.978 16.424C143.53 16.1253 144.236 15.976 145.096 15.976C146.181 15.976 147.03 16.1787 147.644 16.584C148.278 16.9893 148.749 17.5333 149.056 18.216C149.363 18.8773 149.557 19.592 149.639 20.36C149.721 21.128 149.762 21.864 149.762 22.568V29H147.859V22.568C147.859 21.16 147.623 20.0187 147.153 19.144C146.702 18.2693 145.802 17.832 144.451 17.832C143.53 17.832 142.773 18.0667 142.18 18.536C141.607 18.984 141.187 19.592 140.921 20.36C140.675 21.1067 140.553 21.928 140.553 22.824V29H138.527Z" fill="white"/>
<path d="M157.906 29.32C156.698 29.32 155.685 29.032 154.867 28.456C154.068 27.88 153.465 27.0907 153.055 26.088C152.667 25.064 152.472 23.9227 152.472 22.664C152.472 20.7227 152.933 19.1227 153.854 17.864C154.774 16.6053 156.135 15.976 157.936 15.976C158.775 15.976 159.471 16.1253 160.024 16.424C160.597 16.7013 161.057 17.0427 161.405 17.448C161.753 17.8533 162.009 18.2267 162.173 18.568C162.336 18.9093 162.439 19.1333 162.48 19.24H162.541L162.572 10.984H164.598V29H162.879L162.572 26.12H162.51C162.469 26.2267 162.357 26.4507 162.173 26.792C161.988 27.1333 161.712 27.496 161.344 27.88C160.996 28.264 160.535 28.6053 159.962 28.904C159.41 29.1813 158.724 29.32 157.906 29.32ZM158.397 27.496C159.604 27.496 160.587 27.0693 161.344 26.216C162.121 25.3413 162.51 24.1573 162.51 22.664C162.51 21.192 162.152 20.0293 161.436 19.176C160.72 18.3013 159.758 17.864 158.55 17.864C157.588 17.864 156.801 18.0987 156.187 18.568C155.573 19.016 155.122 19.6027 154.836 20.328C154.549 21.0533 154.406 21.832 154.406 22.664C154.406 23.4747 154.539 24.2533 154.805 25C155.071 25.7253 155.491 26.3227 156.064 26.792C156.637 27.2613 157.414 27.496 158.397 27.496Z" fill="white"/>
<path d="M29.0284 25.0607C28.7659 24.6229 28.5035 24.2399 28.136 23.9663C28.556 24.1305 29.0284 24.2399 29.5008 24.2399C31.7055 24.2399 33.4903 22.3794 33.4903 20.0812C33.4903 17.783 31.758 15.8678 29.5008 15.8678C29.0284 15.8678 28.556 15.9773 28.136 16.1414C28.5035 15.8131 28.7659 15.4848 29.0284 15.047C30.1308 13.0771 29.5008 10.5053 27.5586 9.35619C25.6689 8.20708 23.2017 8.86371 22.0994 10.8883C21.8369 11.3261 21.7319 11.7639 21.627 12.2563C21.522 11.7639 21.417 11.3261 21.1545 10.8883C20.0522 8.91843 17.585 8.20708 15.6953 9.35619C13.8056 10.5053 13.1232 13.0771 14.2255 15.047C14.488 15.4848 14.7504 15.8678 15.1179 16.1414C14.6979 15.9773 14.278 15.8678 13.7531 15.8678C11.5484 15.8678 9.76362 17.7283 9.76362 20.0265C9.76362 22.3247 11.5484 24.1852 13.7531 24.1852C14.2255 24.1852 14.6454 24.0758 15.0654 23.9663C14.7504 24.2399 14.4355 24.6229 14.2255 25.006C13.1232 26.9759 13.7531 29.5477 15.6953 30.6968C17.585 31.8459 20.0522 31.1893 21.1545 29.1647C21.417 28.7269 21.522 28.2892 21.627 27.7967C21.6794 28.2892 21.8369 28.7269 22.0994 29.1647C23.2017 31.1346 25.6689 31.8459 27.5586 30.6968C29.5008 29.6024 30.1308 27.0306 29.0284 25.0607ZM23.5692 23.5286C22.5193 24.1852 21.8369 25.2249 21.627 26.374C21.417 25.2249 20.7346 24.1305 19.6847 23.4738C18.6349 22.8719 17.4275 22.7625 16.3777 23.1455C17.2176 22.3794 17.7425 21.2851 17.7425 20.0265C17.7425 18.768 17.1651 17.6188 16.3252 16.8528C17.3751 17.2358 18.6349 17.1811 19.6847 16.5245C20.7346 15.8678 21.417 14.8281 21.627 13.6243C21.8369 14.7734 22.5193 15.8678 23.5692 16.5245C24.619 17.1811 25.8789 17.2358 26.9287 16.8528C26.0363 17.6188 25.5114 18.768 25.5114 20.0265C25.5114 21.2851 26.0888 22.4342 26.9287 23.2002C25.8789 22.8172 24.6715 22.8719 23.5692 23.5286ZM35.7475 11.545C36.3774 12.7488 36.0099 14.2262 34.9076 14.8829C33.8052 15.5395 32.3354 15.1565 31.7055 14.0074C31.0756 12.8582 31.4431 11.3261 32.5454 10.6695C33.6478 10.0128 35.0651 10.3959 35.7475 11.545ZM19.3173 5.52582C19.3173 4.15783 20.3671 3.06344 21.6794 3.06344C22.9918 3.06344 24.0416 4.15783 24.0416 5.52582C24.0416 6.89381 22.9918 7.9882 21.6794 7.9882C20.3671 7.9882 19.3173 6.89381 19.3173 5.52582ZM7.61143 11.545C8.24134 10.3411 9.71113 9.95811 10.8135 10.6695C11.9683 11.3261 12.3358 12.8582 11.6534 14.0074C11.0234 15.2112 9.55365 15.5942 8.45131 14.8829C7.34896 14.2262 6.92902 12.6941 7.61143 11.545ZM7.55893 28.4533C6.92902 27.2495 7.29647 25.7721 8.39882 25.1154C9.50116 24.4588 10.971 24.8418 11.6009 25.9909C12.2308 27.1948 11.8633 28.6722 10.761 29.3288C9.65864 29.9855 8.24134 29.6024 7.55893 28.4533ZM23.9891 34.4725C23.9891 35.8405 22.9393 36.9349 21.627 36.9349C20.3146 36.9349 19.2648 35.8405 19.2648 34.4725C19.2648 33.1045 20.3146 32.0101 21.627 32.0101C22.9393 32.0101 23.9891 33.1045 23.9891 34.4725ZM35.695 28.508C35.0651 29.7119 33.5953 30.0949 32.4929 29.3836C31.3381 28.7269 30.9706 27.1948 31.653 26.0457C32.2829 24.8418 33.7527 24.4588 34.8551 25.1701C35.9574 25.8815 36.3774 27.3042 35.695 28.508ZM43.3064 19.9171C43.3064 21.7228 41.8891 23.2002 40.1568 23.2002C38.4246 23.2002 37.0073 21.7228 37.0073 19.9171C37.0073 18.1113 38.4246 16.6339 40.1568 16.6339C41.8891 16.6886 43.3064 18.1113 43.3064 19.9171ZM28.136 1.64073C28.9759 0.0538637 30.9181 -0.493332 32.4404 0.436901C33.9102 1.31241 34.4351 3.33704 33.5953 4.92391C32.7554 6.51077 30.8132 7.05797 29.2909 6.12774C27.7686 5.25222 27.2437 3.2276 28.136 1.64073ZM9.65864 4.97863C8.76626 3.39176 9.29119 1.42185 10.8135 0.49162C12.3358 -0.438612 14.2255 0.108583 15.1179 1.69545C16.0102 3.28232 15.4853 5.25222 13.963 6.18246C12.4407 7.11269 10.4985 6.56549 9.65864 4.97863ZM6.29911 20.0265C6.29911 21.8323 4.88181 23.3097 3.14956 23.3097C1.4173 23.3097 0 21.8323 0 20.0265C0 18.2208 1.4173 16.7433 3.14956 16.7433C4.88181 16.7433 6.29911 18.2208 6.29911 20.0265ZM15.1704 38.3576C14.3305 39.9444 12.3883 40.4916 10.866 39.5614C9.34368 38.6312 8.81876 36.6613 9.71113 35.0744C10.551 33.4875 12.4932 32.9403 14.0155 33.8706C15.5378 34.8008 16.0627 36.7707 15.1704 38.3576ZM33.6478 35.0197C34.5401 36.6065 34.0152 38.5764 32.4929 39.5067C30.9706 40.4369 29.0809 39.8897 28.1885 38.3028C27.2962 36.716 27.8211 34.7461 29.3434 33.8158C30.8657 32.9403 32.8079 33.4875 33.6478 35.0197Z" fill="#420CF2"/>
</g>
<defs>
<clipPath id="clip0_1013_368">
<rect width="165" height="40" fill="white"/>
</clipPath>
</defs>
</svg>
