<svg width="149" height="32" viewBox="0 0 149 32" fill="none" xmlns="http://www.w3.org/2000/svg">
<path d="M7.66704 24L13.571 6.24H19.787L25.691 24H20.891L19.955 21.024H13.403L12.467 24H7.66704ZM14.627 17.088H18.731L16.691 10.536L14.627 17.088Z" fill="white"></path>
<path d="M27.1314 24V5.76H31.6914V24H27.1314Z" fill="white"></path>
<path d="M35.3291 24V14.88H33.3611V11.28H35.3291V10.656C35.3291 10.224 35.3931 9.72 35.5211 9.144C35.6491 8.552 35.8811 7.984 36.2171 7.44C36.5691 6.88 37.0731 6.424 37.7291 6.072C38.4011 5.704 39.2731 5.52 40.3451 5.52C40.8891 5.52 41.3371 5.56 41.6891 5.64C42.0411 5.704 42.2171 5.736 42.2171 5.736V8.832C42.2171 8.832 42.1371 8.824 41.9771 8.808C41.8331 8.792 41.6971 8.784 41.5691 8.784C40.9611 8.784 40.5291 8.952 40.2731 9.288C40.0171 9.608 39.8891 10.064 39.8891 10.656V11.28H42.2171V14.88H39.8891V24H35.3291Z" fill="white"></path>
<path d="M46.0296 28.704V11.28H48.7656V13.176H48.9096C49.0696 12.936 49.3016 12.648 49.6056 12.312C49.9256 11.976 50.3496 11.68 50.8776 11.424C51.4216 11.168 52.1016 11.04 52.9176 11.04C53.8616 11.04 54.6936 11.232 55.4136 11.616C56.1336 11.984 56.7256 12.488 57.1896 13.128C57.6696 13.752 58.0216 14.456 58.2456 15.24C58.4856 16.024 58.6056 16.824 58.6056 17.64C58.6056 18.456 58.4856 19.256 58.2456 20.04C58.0216 20.824 57.6696 21.536 57.1896 22.176C56.7256 22.8 56.1336 23.304 55.4136 23.688C54.6936 24.056 53.8616 24.24 52.9176 24.24C52.1016 24.24 51.4216 24.112 50.8776 23.856C50.3496 23.6 49.9256 23.304 49.6056 22.968C49.3016 22.632 49.0696 22.344 48.9096 22.104H48.7656V28.704H46.0296ZM48.7656 17.64C48.7656 18.36 48.8936 19.048 49.1496 19.704C49.4216 20.36 49.8136 20.904 50.3256 21.336C50.8536 21.752 51.5096 21.96 52.2936 21.96C53.0936 21.96 53.7496 21.752 54.2616 21.336C54.7896 20.904 55.1816 20.36 55.4376 19.704C55.7096 19.048 55.8456 18.36 55.8456 17.64C55.8456 16.92 55.7096 16.232 55.4376 15.576C55.1816 14.92 54.7896 14.384 54.2616 13.968C53.7496 13.536 53.0936 13.32 52.2936 13.32C51.5096 13.32 50.8536 13.536 50.3256 13.968C49.8136 14.384 49.4216 14.92 49.1496 15.576C48.8936 16.232 48.7656 16.92 48.7656 17.64Z" fill="white"></path>
<path d="M61.0831 24V11.28H63.8191V12.96H63.9151C64.1551 12.464 64.5311 12.024 65.0431 11.64C65.5711 11.24 66.3311 11.04 67.3231 11.04C67.6271 11.04 67.8831 11.056 68.0911 11.088C68.3151 11.12 68.4271 11.136 68.4271 11.136V13.776C68.4271 13.776 68.3071 13.76 68.0671 13.728C67.8271 13.696 67.5551 13.68 67.2511 13.68C66.1311 13.68 65.2751 14 64.6831 14.64C64.1071 15.264 63.8191 16.28 63.8191 17.688V24H61.0831Z" fill="white"></path>
<path d="M75.6779 24.24C74.2859 24.24 73.1099 23.928 72.1499 23.304C71.2059 22.68 70.4859 21.864 69.9899 20.856C69.5099 19.848 69.2699 18.776 69.2699 17.64C69.2699 16.504 69.5099 15.432 69.9899 14.424C70.4859 13.416 71.2059 12.6 72.1499 11.976C73.1099 11.352 74.2859 11.04 75.6779 11.04C77.0539 11.04 78.2139 11.352 79.1579 11.976C80.1179 12.6 80.8379 13.416 81.3179 14.424C81.8139 15.432 82.0619 16.504 82.0619 17.64C82.0619 18.776 81.8139 19.848 81.3179 20.856C80.8379 21.864 80.1179 22.68 79.1579 23.304C78.2139 23.928 77.0539 24.24 75.6779 24.24ZM75.6779 21.912C76.4619 21.912 77.1179 21.712 77.6459 21.312C78.1899 20.912 78.5979 20.384 78.8699 19.728C79.1579 19.072 79.3019 18.376 79.3019 17.64C79.3019 16.888 79.1579 16.192 78.8699 15.552C78.5979 14.896 78.1899 14.368 77.6459 13.968C77.1179 13.568 76.4619 13.368 75.6779 13.368C74.8939 13.368 74.2299 13.568 73.6859 13.968C73.1419 14.368 72.7339 14.896 72.4619 15.552C72.1899 16.192 72.0539 16.888 72.0539 17.64C72.0539 18.376 72.1899 19.072 72.4619 19.728C72.7339 20.384 73.1419 20.912 73.6859 21.312C74.2299 21.712 74.8939 21.912 75.6779 21.912Z" fill="white"></path>
<path d="M89.8786 24.24C88.8706 24.24 88.0626 24.056 87.4546 23.688C86.8466 23.32 86.4066 22.832 86.1346 22.224C85.8786 21.6 85.7506 20.928 85.7506 20.208V13.488H83.5186V11.28H85.7506V8.112H88.4866V11.28H91.4626V13.488H88.4866V20.16C88.4866 21.36 89.1506 21.96 90.4786 21.96C90.8146 21.96 91.1266 21.936 91.4146 21.888C91.7026 21.84 91.8466 21.816 91.8466 21.816V24.048C91.8466 24.048 91.6466 24.08 91.2466 24.144C90.8626 24.208 90.4066 24.24 89.8786 24.24Z" fill="white"></path>
<path d="M99.9835 24.24C98.5915 24.24 97.4155 23.928 96.4555 23.304C95.5115 22.68 94.7915 21.864 94.2955 20.856C93.8155 19.848 93.5755 18.776 93.5755 17.64C93.5755 16.504 93.8155 15.432 94.2955 14.424C94.7915 13.416 95.5115 12.6 96.4555 11.976C97.4155 11.352 98.5915 11.04 99.9835 11.04C101.36 11.04 102.52 11.352 103.464 11.976C104.424 12.6 105.144 13.416 105.624 14.424C106.12 15.432 106.368 16.504 106.368 17.64C106.368 18.776 106.12 19.848 105.624 20.856C105.144 21.864 104.424 22.68 103.464 23.304C102.52 23.928 101.36 24.24 99.9835 24.24ZM99.9835 21.912C100.768 21.912 101.424 21.712 101.952 21.312C102.496 20.912 102.904 20.384 103.176 19.728C103.464 19.072 103.608 18.376 103.608 17.64C103.608 16.888 103.464 16.192 103.176 15.552C102.904 14.896 102.496 14.368 101.952 13.968C101.424 13.568 100.768 13.368 99.9835 13.368C99.1995 13.368 98.5355 13.568 97.9915 13.968C97.4475 14.368 97.0395 14.896 96.7675 15.552C96.4955 16.192 96.3595 16.888 96.3595 17.64C96.3595 18.376 96.4955 19.072 96.7675 19.728C97.0395 20.384 97.4475 20.912 97.9915 21.312C98.5355 21.712 99.1995 21.912 99.9835 21.912Z" fill="white"></path>
<path d="M114.901 24.24C113.829 24.24 112.893 24.056 112.093 23.688C111.293 23.304 110.629 22.8 110.101 22.176C109.573 21.536 109.173 20.824 108.901 20.04C108.645 19.256 108.517 18.456 108.517 17.64C108.517 16.824 108.645 16.024 108.901 15.24C109.173 14.456 109.573 13.752 110.101 13.128C110.629 12.488 111.293 11.984 112.093 11.616C112.893 11.232 113.829 11.04 114.901 11.04C115.957 11.04 116.829 11.2 117.517 11.52C118.221 11.824 118.781 12.208 119.197 12.672C119.613 13.136 119.925 13.6 120.133 14.064C120.341 14.528 120.469 14.92 120.517 15.24C120.581 15.56 120.613 15.72 120.613 15.72H118.021C118.021 15.72 117.981 15.6 117.901 15.36C117.837 15.12 117.701 14.84 117.493 14.52C117.285 14.2 116.973 13.92 116.557 13.68C116.157 13.44 115.613 13.32 114.925 13.32C114.109 13.32 113.429 13.528 112.885 13.944C112.341 14.344 111.925 14.872 111.637 15.528C111.365 16.184 111.229 16.888 111.229 17.64C111.229 18.392 111.365 19.096 111.637 19.752C111.925 20.408 112.341 20.944 112.885 21.36C113.429 21.76 114.109 21.96 114.925 21.96C115.613 21.96 116.157 21.84 116.557 21.6C116.973 21.36 117.285 21.08 117.493 20.76C117.701 20.44 117.837 20.16 117.901 19.92C117.981 19.68 118.021 19.56 118.021 19.56H120.613C120.613 19.56 120.581 19.72 120.517 20.04C120.469 20.36 120.341 20.752 120.133 21.216C119.925 21.68 119.613 22.144 119.197 22.608C118.781 23.072 118.221 23.464 117.517 23.784C116.829 24.088 115.957 24.24 114.901 24.24Z" fill="white"></path>
<path d="M129.234 24.24C127.842 24.24 126.666 23.928 125.706 23.304C124.762 22.68 124.042 21.864 123.546 20.856C123.066 19.848 122.826 18.776 122.826 17.64C122.826 16.504 123.066 15.432 123.546 14.424C124.042 13.416 124.762 12.6 125.706 11.976C126.666 11.352 127.842 11.04 129.234 11.04C130.61 11.04 131.77 11.352 132.714 11.976C133.674 12.6 134.394 13.416 134.874 14.424C135.37 15.432 135.618 16.504 135.618 17.64C135.618 18.776 135.37 19.848 134.874 20.856C134.394 21.864 133.674 22.68 132.714 23.304C131.77 23.928 130.61 24.24 129.234 24.24ZM129.234 21.912C130.018 21.912 130.674 21.712 131.202 21.312C131.746 20.912 132.154 20.384 132.426 19.728C132.714 19.072 132.858 18.376 132.858 17.64C132.858 16.888 132.714 16.192 132.426 15.552C132.154 14.896 131.746 14.368 131.202 13.968C130.674 13.568 130.018 13.368 129.234 13.368C128.45 13.368 127.786 13.568 127.242 13.968C126.698 14.368 126.29 14.896 126.018 15.552C125.746 16.192 125.61 16.888 125.61 17.64C125.61 18.376 125.746 19.072 126.018 19.728C126.29 20.384 126.698 20.912 127.242 21.312C127.786 21.712 128.45 21.912 129.234 21.912Z" fill="white"></path>
<path d="M138.295 24L138.319 5.76H141.031V24H138.295Z" fill="white"></path>
<path d="M2 24H0V32H8V30H2V24Z" fill="white"></path>
<path d="M147 24H149V32H141V30H147V24Z" fill="white"></path>
<path d="M2 8H0V0H8V2L2 2V8Z" fill="white"></path>
<path d="M147 8H149V0H141V2L147 2V8Z" fill="white"></path>
</svg>
