<svg width="48" height="48" viewBox="0 0 48 48" fill="none" xmlns="http://www.w3.org/2000/svg">
<path d="M32.1745 29.3103C31.8836 28.8511 31.5927 28.4492 31.1855 28.1621C31.6509 28.3344 32.1745 28.4492 32.6982 28.4492C35.1418 28.4492 37.12 26.4973 37.12 24.0861C37.12 21.6749 35.2 19.6656 32.6982 19.6656C32.1745 19.6656 31.6509 19.7804 31.1855 19.9527C31.5927 19.6082 31.8836 19.2638 32.1745 18.8045C33.3964 16.7378 32.6982 14.0395 30.5455 12.834C28.4509 11.6284 25.7164 12.3173 24.4945 14.4414C24.2036 14.9007 24.0873 15.36 23.9709 15.8766C23.8545 15.36 23.7382 14.9007 23.4473 14.4414C22.2255 12.3747 19.4909 11.6284 17.3964 12.834C15.3018 14.0395 14.5455 16.7378 15.7673 18.8045C16.0582 19.2638 16.3491 19.6656 16.7564 19.9527C16.2909 19.7804 15.8255 19.6656 15.2436 19.6656C12.8 19.6656 10.8218 21.6175 10.8218 24.0287C10.8218 26.4399 12.8 28.3918 15.2436 28.3918C15.7673 28.3918 16.2327 28.277 16.6982 28.1621C16.3491 28.4492 16 28.8511 15.7673 29.2529C14.5455 31.3196 15.2436 34.0179 17.3964 35.2234C19.4909 36.429 22.2255 35.7401 23.4473 33.616C23.7382 33.1567 23.8545 32.6975 23.9709 32.1808C24.0291 32.6975 24.2036 33.1567 24.4945 33.616C25.7164 35.6827 28.4509 36.429 30.5455 35.2234C32.6982 34.0753 33.3964 31.377 32.1745 29.3103ZM26.1236 27.7029C24.96 28.3918 24.2036 29.4826 23.9709 30.6881C23.7382 29.4826 22.9818 28.3344 21.8182 27.6455C20.6545 27.014 19.3164 26.8992 18.1527 27.301C19.0836 26.4973 19.6655 25.3491 19.6655 24.0287C19.6655 22.7083 19.0255 21.5027 18.0945 20.699C19.2582 21.1008 20.6545 21.0434 21.8182 20.3545C22.9818 19.6656 23.7382 18.5749 23.9709 17.3119C24.2036 18.5174 24.96 19.6656 26.1236 20.3545C27.2873 21.0434 28.6836 21.1008 29.8473 20.699C28.8582 21.5027 28.2764 22.7083 28.2764 24.0287C28.2764 25.3491 28.9164 26.5547 29.8473 27.3584C28.6836 26.9566 27.3455 27.014 26.1236 27.7029ZM39.6218 15.1303C40.32 16.3933 39.9127 17.9434 38.6909 18.6323C37.4691 19.3212 35.84 18.9193 35.1418 17.7137C34.4436 16.5081 34.8509 14.9007 36.0727 14.2118C37.2945 13.5229 38.8655 13.9247 39.6218 15.1303ZM21.4109 8.81534C21.4109 7.38011 22.5745 6.23193 24.0291 6.23193C25.4836 6.23193 26.6473 7.38011 26.6473 8.81534C26.6473 10.2506 25.4836 11.3987 24.0291 11.3987C22.5745 11.3987 21.4109 10.2506 21.4109 8.81534ZM8.43636 15.1303C9.13455 13.8673 10.7636 13.4655 11.9855 14.2118C13.2655 14.9007 13.6727 16.5081 12.9164 17.7137C12.2182 18.9767 10.5891 19.3786 9.36727 18.6323C8.14545 17.9434 7.68 16.3359 8.43636 15.1303ZM8.37818 32.8697C7.68 31.6067 8.08727 30.0566 9.30909 29.3677C10.5309 28.6788 12.16 29.0807 12.8582 30.2863C13.5564 31.5493 13.1491 33.0993 11.9273 33.7882C10.7055 34.4771 9.13455 34.0753 8.37818 32.8697ZM26.5891 39.1847C26.5891 40.6199 25.4255 41.7681 23.9709 41.7681C22.5164 41.7681 21.3527 40.6199 21.3527 39.1847C21.3527 37.7494 22.5164 36.6013 23.9709 36.6013C25.4255 36.6013 26.5891 37.7494 26.5891 39.1847ZM39.5636 32.9271C38.8655 34.1901 37.2364 34.5919 36.0145 33.8456C34.7345 33.1567 34.3273 31.5493 35.0836 30.3437C35.7818 29.0807 37.4109 28.6788 38.6327 29.4251C39.8545 30.1715 40.32 31.6641 39.5636 32.9271ZM48 23.9139C48 25.8084 46.4291 27.3584 44.5091 27.3584C42.5891 27.3584 41.0182 25.8084 41.0182 23.9139C41.0182 22.0194 42.5891 20.4693 44.5091 20.4693C46.4291 20.5268 48 22.0194 48 23.9139ZM31.1855 4.7393C32.1164 3.07444 34.2691 2.50035 35.9564 3.4763C37.5855 4.39485 38.1673 6.51898 37.2364 8.18384C36.3055 9.8487 34.1527 10.4228 32.4655 9.44683C30.7782 8.52829 30.1964 6.40416 31.1855 4.7393ZM10.7055 8.24125C9.71636 6.57639 10.2982 4.50966 11.9855 3.53371C13.6727 2.55776 15.7673 3.13185 16.7564 4.79671C17.7455 6.46157 17.1636 8.52829 15.4764 9.50424C13.7891 10.4802 11.6364 9.90611 10.7055 8.24125ZM6.98182 24.0287C6.98182 25.9232 5.41091 27.4732 3.49091 27.4732C1.57091 27.4732 0 25.9232 0 24.0287C0 22.1342 1.57091 20.5842 3.49091 20.5842C5.41091 20.5842 6.98182 22.1342 6.98182 24.0287ZM16.8145 43.2607C15.8836 44.9256 13.7309 45.4997 12.0436 44.5237C10.3564 43.5477 9.77454 41.481 10.7636 39.8162C11.6945 38.1513 13.8473 37.5772 15.5345 38.5532C17.2218 39.5291 17.8036 41.5958 16.8145 43.2607ZM37.2945 39.7588C38.2836 41.4236 37.7018 43.4903 36.0145 44.4663C34.3273 45.4422 32.2327 44.8682 31.2436 43.2033C30.2545 41.5384 30.8364 39.4717 32.5236 38.4958C34.2109 37.5772 36.3636 38.1513 37.2945 39.7588Z" fill="#420CF2"/>
</svg>
