<svg width="24" height="24" viewBox="0 0 24 24" fill="none" xmlns="http://www.w3.org/2000/svg">
<path d="M12.5325 3.22049C12.4628 3.15065 12.3801 3.09523 12.289 3.05742C12.1978 3.01961 12.1002 3.00015 12.0015 3.00015C11.9028 3.00015 11.8052 3.01961 11.714 3.05742C11.6229 3.09523 11.5402 3.15065 11.4705 3.22049C9.606 5.08199 7.545 5.99999 5.25 5.99999C5.05109 5.99999 4.86032 6.07901 4.71967 6.21966C4.57902 6.36032 4.5 6.55108 4.5 6.74999V11.2515C4.5 15.636 6.531 18.7455 10.5 20.478V15C10.4998 14.3348 10.7208 13.6884 11.1281 13.1624C11.5354 12.6365 12.1059 12.2608 12.75 12.0945V12C12.7498 11.21 12.9575 10.4338 13.3524 9.74951C13.7472 9.06523 14.3153 8.49696 14.9994 8.10184C15.6835 7.70672 16.4596 7.49867 17.2497 7.49861C18.0397 7.49855 18.8158 7.70648 19.5 8.10149V6.74999C19.5 6.55108 19.421 6.36032 19.2803 6.21966C19.1397 6.07901 18.9489 5.99999 18.75 5.99999C16.4535 5.99999 14.3925 5.08499 12.5325 3.22049ZM14.25 13.5V12C14.25 11.2043 14.5661 10.4413 15.1287 9.87867C15.6913 9.31606 16.4544 8.99999 17.25 8.99999C18.0456 8.99999 18.8087 9.31606 19.3713 9.87867C19.9339 10.4413 20.25 11.2043 20.25 12V13.5H21C21.3978 13.5 21.7794 13.658 22.0607 13.9393C22.342 14.2206 22.5 14.6022 22.5 15V21C22.5 21.3978 22.342 21.7793 22.0607 22.0607C21.7794 22.342 21.3978 22.5 21 22.5H13.5C13.1022 22.5 12.7206 22.342 12.4393 22.0607C12.158 21.7793 12 21.3978 12 21V15C12 14.6022 12.158 14.2206 12.4393 13.9393C12.7206 13.658 13.1022 13.5 13.5 13.5H14.25ZM15.75 12V13.5H18.75V12C18.75 11.6022 18.592 11.2206 18.3107 10.9393C18.0294 10.658 17.6478 10.5 17.25 10.5C16.8522 10.5 16.4706 10.658 16.1893 10.9393C15.908 11.2206 15.75 11.6022 15.75 12ZM18.375 18C18.375 17.7016 18.2565 17.4155 18.0455 17.2045C17.8345 16.9935 17.5484 16.875 17.25 16.875C16.9516 16.875 16.6655 16.9935 16.4545 17.2045C16.2435 17.4155 16.125 17.7016 16.125 18C16.125 18.2984 16.2435 18.5845 16.4545 18.7955C16.6655 19.0065 16.9516 19.125 17.25 19.125C17.5484 19.125 17.8345 19.0065 18.0455 18.7955C18.2565 18.5845 18.375 18.2984 18.375 18Z" fill="#F23076"/>
</svg>
