<svg width="48" height="48" viewBox="0 0 48 48" fill="none" xmlns="http://www.w3.org/2000/svg">
<path d="M0 24C0 10.7452 10.7452 0 24 0C37.2548 0 48 10.7452 48 24C48 37.2548 37.2548 48 24 48C10.7452 48 0 37.2548 0 24Z" fill="#574FF0"/>
<g clip-path="url(#clip0_2_1316)">
<path d="M12.3333 17.3333H10.6667V10.6667H17.3333V12.3333L12.3333 12.3333V17.3333Z" fill="white"/>
<path d="M12.3333 30.6667H10.6667V37.3333H17.3333V35.6667H12.3333V30.6667Z" fill="white"/>
<path d="M35.6667 17.3333H37.3333V10.6667H30.6667V12.3333L35.6667 12.3333V17.3333Z" fill="white"/>
<path d="M35.6667 30.6667H37.3333V37.3333H30.6667V35.6667H35.6667V30.6667Z" fill="white"/>
<path d="M16.5 31.5L21.4134 15.6667H26.5866L31.5 31.5H27.5053L26.7264 28.8468H21.2736L20.4947 31.5H16.5ZM22.2923 25.3378H25.7077L24.01 19.4966L22.2923 25.3378Z" fill="white"/>
</g>
<defs>
<clipPath id="clip0_2_1316">
<rect width="26.6667" height="26.6667" fill="white" transform="translate(10.6667 10.6667)"/>
</clipPath>
</defs>
</svg>
