<svg width="16" height="16" viewBox="0 0 16 16" fill="none" xmlns="http://www.w3.org/2000/svg">
<path d="M13.3334 4.66667V3.33333C13.3334 2.598 12.7354 2 12 2H3.33337C2.23071 2 1.33337 2.89733 1.33337 4V12C1.33337 13.4673 2.52937 14 3.33337 14H13.3334C14.0687 14 14.6667 13.402 14.6667 12.6667V6C14.6667 5.26467 14.0687 4.66667 13.3334 4.66667ZM12 10.6667H10.6667V8H12V10.6667ZM3.33337 4.66667C3.16172 4.65899 2.99964 4.5854 2.88089 4.46121C2.76214 4.33703 2.69586 4.17182 2.69586 4C2.69586 3.82818 2.76214 3.66297 2.88089 3.53879C2.99964 3.4146 3.16172 3.34101 3.33337 3.33333H12V4.66667H3.33337Z" fill="#F8ECFE"/>
</svg>
